<svg id="Camada_1" data-name="Camada 1" xmlns="http://www.w3.org/2000/svg" viewBox="0 0 835.16 790.09"><defs><style>.cls-1,.cls-2{fill:#fff;}.cls-1{fill-rule:evenodd;}</style></defs><path class="cls-1" d="M254.34,273.55l44,73.15v61.78c-15.2-18.47-92.11-95.69-44-134.93M98.38,80.18,161,108.34l-35.14,39.93ZM420.11,712.43v53.92H389.45l-41-53.92ZM42.58,23.75,176.41,84.11h243.7v613.6H337.24L298.1,646.26l-14.58-35.52-60.45,60.11-5.48-5.51L280.33,603,270,577.74l-86.71,33.93-2.83-7.25L267,570.54l-9.41-22.93H169.48v-7.78h84.94Z"/><path class="cls-2" d="M579.27,651.11l47.9-45.2a91.3,91.3,0,0,0,28.65-66.42V294.58a91.33,91.33,0,0,0-32.28-69.67L579.27,187.4Z"/><path class="cls-2" d="M706.3,295V531.26l57.63-54.37a91.33,91.33,0,0,0,28.65-66.43h0a91.35,91.35,0,0,0-32.28-69.67Z"/><path class="cls-2" d="M496.51,117.27,457.76,84.43V765.75l42.38-40a91.3,91.3,0,0,0,28.65-66.42V186.94A91.3,91.3,0,0,0,496.51,117.27Z"/></svg>