<svg id="Camada_1" data-name="Camada 1" xmlns="http://www.w3.org/2000/svg" viewBox="0 0 835.16 790.09"><defs><style>.cls-1,.cls-2{fill:#232323;}.cls-2{fill-rule:evenodd;}</style></defs><path class="cls-1" d="M174,755.32V712.26c0-16.11-6-22.41-26.19-22.41H110.52v65.47h-34V588.12h84.86c31,0,51.37,20.65,51.37,48.35,0,17.88-8.81,33-24.93,38.78,14.86,4.78,20.4,13.09,20.4,32.73v47.34ZM110.52,617.08v44.57h43.81c18.63,0,25.68-9.32,25.68-22.16,0-13.09-7-22.41-24.42-22.41Z"/><path class="cls-1" d="M300.37,755.32a47.93,47.93,0,0,1-2-11.08c-7.81,8.56-20.91,14.36-37.53,14.36-28.2,0-41.29-13.85-41.29-34,0-35.75,23.92-39.78,56.91-44.32,16.37-2.26,20.9-5.54,20.9-14.1,0-8.06-8.06-12.84-20.9-12.84-14.86,0-20.9,7.3-22.41,18.38H223.57c.5-25.68,14.6-43.56,54.39-43.56,39.28,0,52.88,17.63,52.88,48.85v78.31Zm-2.27-60.68c-3.27,3.27-9.06,5-21.15,7.3-18.63,3.52-24.68,8.81-24.68,19.39,0,9.32,5.54,13.85,15.87,13.85,16.87,0,29.46-12.34,29.71-26.95Z"/><path class="cls-1" d="M415.44,673.74h30.47V709c0,26.19-15.11,49.61-50.11,49.61-36.26,0-50.62-23.17-50.62-49.86V597.94h32.24v33.49h68.49V654.6H377.42v50.86c0,15.62,5.54,24.68,18.88,24.68,13.1,0,19.14-8.81,19.14-24.17Z"/><path class="cls-1" d="M456.48,673.23c0-56.66,28.95-90.65,80.32-90.65s79.83,34,79.83,91.41-28.46,87.12-79.83,87.12S456.48,729.64,456.48,673.23Zm125.65.76c0-39.53-16.12-60.44-45.33-60.44C507.34,613.55,491,634.46,491,674s16.87,57.16,45.83,57.16C562,731.15,582.13,713.52,582.13,674Z"/><path class="cls-1" d="M720.11,637.48C718.35,620.35,708,612,686.87,612c-19.64,0-30,7.05-30,19.64,0,10.58,7.3,16.62,25.94,21.16,18.88,4.53,37.26,9.06,49.6,14.6,14.61,6.55,26.19,16.87,26.19,40.54,0,36.77-27.7,53.13-66.73,53.13-41.3,0-70-18.38-70.76-55.9h33.74c.51,17.13,14.86,27.7,37.27,27.7,20.65,0,32.49-8.81,32.49-23.67,0-9.82-5-16.62-25.94-21.15-20.65-4.53-34-7.55-45.83-12.84-17.88-8.06-28-20.15-28-41.3,0-30,20.4-51.37,61.19-51.37,42.3,0,66,22.91,67.23,54.9Z"/><path class="cls-2" d="M305.08,201.14l30.35,50.41v42.58c-10.48-12.73-63.48-65.95-30.35-93M197.6,67.88l43.15,19.4L216.53,114.8ZM419.32,503.6v37.16H398.19L369.93,503.6ZM159.14,29l92.23,41.6h168V493.46H362.21l-27-35.46-10.05-24.48L283.53,475l-3.78-3.8,43.24-43-7.13-17.38L256.1,434.16l-2-5,59.67-23.35L307.33,390H246.6v-5.35h58.53Z"/><path class="cls-1" d="M529,461.34l33-31.14a62.91,62.91,0,0,0,19.75-45.78V215.63a62.91,62.91,0,0,0-22.25-48L529,141.76Z"/><path class="cls-1" d="M616.56,216v162.8l39.72-37.48A62.93,62.93,0,0,0,676,295.5h0a62.92,62.92,0,0,0-22.25-48Z"/><path class="cls-1" d="M472,93.43,445.27,70.8V540.35l29.21-27.56A63,63,0,0,0,494.23,467V141.45A63,63,0,0,0,472,93.43Z"/></svg>