<svg id="Camada_1" data-name="Camada 1" xmlns="http://www.w3.org/2000/svg" viewBox="0 0 1393.45 443.38"><defs><style>.cls-1{fill:#232323;}</style></defs><path class="cls-1" d="M253.27,373.64V295.26c0-29.34-11-40.8-47.67-40.8H137.76V373.64H75.89V69.29H230.35c56.38,0,93.51,37.58,93.51,88,0,32.54-16.05,60.05-45.38,70.59,27,8.71,37.13,23.83,37.13,59.58v86.18ZM137.76,122v81.13h79.76c33.92,0,46.75-17,46.75-40.34,0-23.83-12.83-40.79-44.46-40.79Z"/><path class="cls-1" d="M483.36,373.64a88.1,88.1,0,0,1-3.67-20.17c-14.21,15.58-38,26.13-68.29,26.13-51.34,0-75.17-25.21-75.17-61.88,0-65.09,43.54-72.42,103.59-80.67,29.79-4.13,38-10.09,38-25.67,0-14.67-14.67-23.38-38-23.38-27.05,0-38.05,13.29-40.8,33.46H343.56c.92-46.75,26.59-79.29,99-79.29,71.5,0,96.25,32.08,96.25,88.92V373.64Zm-4.13-110.47c-6,6-16.5,9.17-38.5,13.29-33.92,6.42-44.92,16.05-44.92,35.3,0,17,10.09,25.21,28.88,25.21,30.71,0,53.63-22.46,54.09-49.05Z"/><path class="cls-1" d="M692.83,225.13h55.46V289.3c0,47.67-27.5,90.3-91.21,90.3-66,0-92.14-42.17-92.14-90.76V87.16h58.67v61H748.29v42.17H623.61v92.59c0,28.42,10.09,44.92,34.38,44.92,23.84,0,34.84-16,34.84-44Z"/><path class="cls-1" d="M767.53,224.21c0-103.13,52.71-165,146.22-165s145.3,61.88,145.3,166.39-51.8,158.59-145.3,158.59S767.53,326.88,767.53,224.21Zm228.72,1.38c0-72-29.33-110-82.5-110-53.63,0-83.42,38-83.42,110s30.71,104,83.42,104C959.59,329.63,996.25,297.55,996.25,225.59Z"/><path class="cls-1" d="M1247.44,159.12c-3.21-31.16-22-46.29-60.5-46.29-35.76,0-54.55,12.83-54.55,35.75,0,19.25,13.29,30.25,47.21,38.5,34.38,8.25,67.84,16.51,90.3,26.59,26.58,11.92,47.67,30.71,47.67,73.79,0,66.93-50.42,96.72-121.47,96.72-75.17,0-127.42-33.46-128.8-101.76h61.42c.92,31.17,27,50.42,67.84,50.42,37.59,0,59.13-16,59.13-43.08,0-17.88-9.17-30.25-47.21-38.51-37.59-8.25-61.88-13.75-83.42-23.37-32.55-14.67-50.88-36.67-50.88-75.17,0-54.55,37.13-93.51,111.38-93.51,77,0,120.09,41.71,122.38,99.92Z"/></svg>