<svg id="svg" version="1.1" xmlns="http://www.w3.org/2000/svg" xmlns:xlink="http://www.w3.org/1999/xlink" width="400" height="400" viewBox="0, 0, 400,400"><g id="svgg"><path id="path0" d="M0.400 7.000 C 0.400 7.990,0.580 8.800,0.800 8.800 C 1.020 8.800,1.200 9.340,1.200 10.000 C 1.200 10.660,1.380 11.200,1.600 11.200 C 1.820 11.200,2.004 11.515,2.009 11.900 C 2.014 12.285,2.370 13.050,2.800 13.600 C 3.230 14.150,3.586 14.915,3.591 15.300 C 3.596 15.685,3.780 16.000,4.000 16.000 C 4.220 16.000,4.400 16.360,4.400 16.800 C 4.400 17.240,4.580 17.600,4.800 17.600 C 5.020 17.600,5.200 18.140,5.200 18.800 C 5.200 19.460,5.380 20.000,5.600 20.000 C 5.820 20.000,6.000 20.540,6.000 21.200 C 6.000 21.860,6.180 22.400,6.400 22.400 C 6.620 22.400,6.800 22.850,6.800 23.400 C 6.800 23.950,6.980 24.400,7.200 24.400 C 7.420 24.400,7.600 24.701,7.600 25.069 C 7.600 25.436,7.835 26.021,8.123 26.369 C 8.410 26.716,9.221 28.743,9.926 30.874 C 11.093 34.406,12.236 37.231,13.133 38.800 C 14.037 40.383,14.400 41.240,14.400 41.795 C 14.400 42.128,14.580 42.400,14.800 42.400 C 15.020 42.400,15.200 42.940,15.200 43.600 C 15.200 44.260,15.380 44.800,15.600 44.800 C 15.820 44.800,16.000 45.340,16.000 46.000 C 16.000 46.660,16.180 47.200,16.400 47.200 C 16.620 47.200,16.800 47.667,16.800 48.237 C 16.800 48.938,17.059 49.343,17.600 49.484 C 18.167 49.632,18.400 50.030,18.400 50.847 C 18.400 51.481,18.580 52.000,18.800 52.000 C 19.020 52.000,19.200 52.540,19.200 53.200 C 19.200 53.860,19.380 54.400,19.600 54.400 C 19.820 54.400,20.000 54.850,20.000 55.400 C 20.000 55.950,20.180 56.400,20.400 56.400 C 20.620 56.400,20.800 56.749,20.800 57.176 C 20.800 57.603,20.980 58.064,21.200 58.200 C 21.420 58.336,21.600 58.847,21.600 59.335 C 21.600 59.824,21.960 60.483,22.400 60.800 C 22.870 61.139,23.200 61.835,23.200 62.488 C 23.200 63.100,23.380 63.600,23.600 63.600 C 23.820 63.600,24.000 63.960,24.000 64.400 C 24.000 64.840,24.180 65.200,24.400 65.200 C 24.620 65.200,24.800 65.593,24.800 66.073 C 24.800 67.271,26.364 71.647,27.088 72.475 C 27.413 72.846,27.573 73.321,27.444 73.529 C 27.314 73.738,27.477 74.132,27.804 74.404 C 28.132 74.676,28.400 75.326,28.400 75.849 C 28.400 76.372,28.580 76.800,28.800 76.800 C 29.020 76.800,29.200 77.239,29.200 77.776 C 29.200 78.313,29.380 78.864,29.600 79.000 C 29.820 79.136,30.000 79.597,30.000 80.024 C 30.000 80.451,30.180 80.800,30.400 80.800 C 30.620 80.800,30.800 81.340,30.800 82.000 C 30.800 82.660,30.980 83.200,31.200 83.200 C 31.420 83.200,31.600 83.470,31.600 83.800 C 31.600 84.130,31.960 84.760,32.400 85.200 C 32.840 85.640,33.200 86.450,33.200 87.000 C 33.200 87.550,33.380 88.000,33.600 88.000 C 33.820 88.000,34.000 88.439,34.000 88.976 C 34.000 89.513,34.180 90.064,34.400 90.200 C 34.620 90.336,34.800 90.887,34.800 91.424 C 34.800 91.961,34.980 92.400,35.200 92.400 C 35.420 92.400,35.600 92.940,35.600 93.600 C 35.600 94.260,35.780 94.800,36.000 94.800 C 36.220 94.800,36.400 95.267,36.400 95.837 C 36.400 96.538,36.659 96.943,37.200 97.084 C 37.767 97.232,38.000 97.630,38.000 98.447 C 38.000 99.081,38.180 99.600,38.400 99.600 C 38.620 99.600,38.800 99.949,38.800 100.376 C 38.800 100.803,38.980 101.264,39.200 101.400 C 39.420 101.536,39.600 102.087,39.600 102.624 C 39.600 103.161,39.780 103.600,40.000 103.600 C 40.220 103.600,40.400 104.140,40.400 104.800 C 40.400 105.460,40.580 106.000,40.800 106.000 C 41.020 106.000,41.200 106.373,41.200 106.829 C 41.200 107.284,41.470 107.927,41.800 108.257 C 42.130 108.587,42.400 109.204,42.400 109.629 C 42.400 110.053,42.580 110.400,42.800 110.400 C 43.020 110.400,43.200 110.940,43.200 111.600 C 43.200 112.260,43.380 112.800,43.600 112.800 C 43.820 112.800,44.000 113.239,44.000 113.776 C 44.000 114.313,44.180 114.864,44.400 115.000 C 44.620 115.136,44.800 115.563,44.800 115.948 C 44.800 116.559,45.643 118.475,46.759 120.400 C 46.951 120.730,47.329 121.540,47.600 122.200 C 47.871 122.860,48.252 123.713,48.447 124.095 C 48.641 124.477,48.800 125.062,48.800 125.395 C 48.800 125.728,48.980 126.000,49.200 126.000 C 49.420 126.000,49.600 126.540,49.600 127.200 C 49.600 127.860,49.780 128.400,50.000 128.400 C 50.220 128.400,50.400 128.900,50.400 129.512 C 50.400 130.147,50.727 130.859,51.164 131.174 C 51.584 131.476,51.835 131.965,51.722 132.259 C 51.609 132.553,51.806 132.904,52.158 133.039 C 52.543 133.187,52.800 133.750,52.800 134.443 C 52.800 135.079,52.980 135.600,53.200 135.600 C 53.420 135.600,53.600 136.140,53.600 136.800 C 53.600 137.460,53.780 138.000,54.000 138.000 C 54.220 138.000,54.400 138.450,54.400 139.000 C 54.400 139.550,54.580 140.000,54.800 140.000 C 55.020 140.000,55.200 140.439,55.200 140.976 C 55.200 141.513,55.380 142.064,55.600 142.200 C 55.820 142.336,56.000 142.795,56.000 143.220 C 56.000 143.645,56.360 144.218,56.800 144.493 C 57.286 144.796,57.600 145.426,57.600 146.096 C 57.600 146.703,57.780 147.200,58.000 147.200 C 58.220 147.200,58.400 147.447,58.400 147.748 C 58.400 148.884,60.341 154.225,61.544 156.400 C 62.536 158.193,62.800 158.865,62.800 159.595 C 62.800 160.038,62.980 160.400,63.200 160.400 C 63.420 160.400,63.600 160.839,63.600 161.376 C 63.600 161.913,63.744 162.442,63.921 162.551 C 64.097 162.660,64.496 163.683,64.807 164.825 C 65.118 165.967,65.693 167.101,66.086 167.347 C 66.479 167.592,66.800 168.189,66.800 168.673 C 66.800 169.157,66.980 169.664,67.200 169.800 C 67.420 169.936,67.600 170.397,67.600 170.824 C 67.600 171.251,67.780 171.600,68.000 171.600 C 68.220 171.600,68.400 172.039,68.400 172.576 C 68.400 173.113,68.580 173.664,68.800 173.800 C 69.020 173.936,69.200 174.487,69.200 175.024 C 69.200 175.561,69.380 176.000,69.600 176.000 C 69.820 176.000,70.000 176.500,70.000 177.112 C 70.000 177.765,70.330 178.461,70.800 178.800 C 71.240 179.117,71.600 179.697,71.600 180.088 C 71.600 180.480,71.780 180.800,72.000 180.800 C 72.220 180.800,72.400 181.340,72.400 182.000 C 72.400 182.660,72.580 183.200,72.800 183.200 C 73.020 183.200,73.200 183.740,73.200 184.400 C 73.200 185.060,73.380 185.600,73.600 185.600 C 73.820 185.600,74.000 185.960,74.000 186.400 C 74.000 186.840,74.180 187.200,74.400 187.200 C 74.620 187.200,74.800 187.811,74.800 188.557 C 74.800 189.398,75.030 190.003,75.404 190.146 C 75.736 190.273,75.974 190.518,75.934 190.689 C 75.863 190.989,76.504 192.656,77.243 194.095 C 77.439 194.477,77.600 195.152,77.600 195.595 C 77.600 196.038,77.780 196.400,78.000 196.400 C 78.220 196.400,78.400 196.839,78.400 197.376 C 78.400 197.913,78.580 198.464,78.800 198.600 C 79.020 198.736,79.200 199.180,79.200 199.586 C 79.200 200.475,80.815 203.600,81.274 203.600 C 81.453 203.600,81.600 204.039,81.600 204.576 C 81.600 205.113,81.780 205.664,82.000 205.800 C 82.220 205.936,82.400 206.487,82.400 207.024 C 82.400 207.561,82.580 208.000,82.800 208.000 C 83.020 208.000,83.200 208.439,83.200 208.976 C 83.200 209.513,83.380 210.064,83.600 210.200 C 83.820 210.336,84.000 210.797,84.000 211.224 C 84.000 211.651,84.180 212.000,84.400 212.000 C 84.620 212.000,84.800 212.538,84.800 213.197 C 84.800 213.960,85.090 214.574,85.600 214.893 C 86.040 215.168,86.400 215.709,86.400 216.096 C 86.400 216.483,86.580 216.800,86.800 216.800 C 87.020 216.800,87.200 217.340,87.200 218.000 C 87.200 218.660,87.380 219.200,87.600 219.200 C 87.820 219.200,88.000 219.740,88.000 220.400 C 88.000 221.060,88.180 221.600,88.400 221.600 C 88.620 221.600,88.800 222.050,88.800 222.600 C 88.800 223.150,88.980 223.600,89.200 223.600 C 89.420 223.600,89.600 224.097,89.600 224.704 C 89.600 225.374,89.914 226.004,90.400 226.307 C 90.840 226.582,91.200 227.165,91.200 227.603 C 91.200 228.042,91.380 228.400,91.600 228.400 C 91.820 228.400,92.000 228.812,92.000 229.315 C 92.000 230.273,93.276 234.209,93.735 234.668 C 93.881 234.814,94.000 235.239,94.000 235.613 C 94.000 235.986,94.360 236.750,94.800 237.309 C 95.240 237.869,95.600 238.613,95.600 238.963 C 95.600 239.313,95.780 239.600,96.000 239.600 C 96.220 239.600,96.400 240.050,96.400 240.600 C 96.400 241.150,96.580 241.600,96.800 241.600 C 97.020 241.600,97.200 242.140,97.200 242.800 C 97.200 243.460,97.380 244.000,97.600 244.000 C 97.820 244.000,98.000 244.540,98.000 245.200 C 98.000 245.860,98.180 246.400,98.400 246.400 C 98.620 246.400,98.800 246.703,98.800 247.074 C 98.800 247.991,100.383 251.200,100.836 251.200 C 101.036 251.200,101.200 251.740,101.200 252.400 C 101.200 253.060,101.380 253.600,101.600 253.600 C 101.820 253.600,102.000 253.960,102.000 254.400 C 102.000 254.840,102.180 255.200,102.400 255.200 C 102.620 255.200,102.800 255.639,102.800 256.176 C 102.800 256.713,102.980 257.264,103.200 257.400 C 103.420 257.536,103.600 258.087,103.600 258.624 C 103.600 259.161,103.780 259.600,104.000 259.600 C 104.220 259.600,104.400 260.016,104.400 260.525 C 104.400 261.033,104.760 261.836,105.200 262.308 C 105.640 262.780,106.000 263.444,106.000 263.783 C 106.000 264.122,106.180 264.400,106.400 264.400 C 106.620 264.400,106.800 264.940,106.800 265.600 C 106.800 266.260,106.980 266.800,107.200 266.800 C 107.420 266.800,107.600 267.340,107.600 268.000 C 107.600 268.660,107.780 269.200,108.000 269.200 C 108.220 269.200,108.400 269.639,108.400 270.176 C 108.400 270.713,108.580 271.264,108.800 271.400 C 109.020 271.536,109.200 272.067,109.200 272.581 C 109.200 273.094,109.470 273.618,109.800 273.745 C 110.130 273.871,110.400 274.330,110.400 274.764 C 110.400 275.198,110.580 275.664,110.800 275.800 C 112.221 276.678,109.631 276.800,89.500 276.806 C 77.565 276.809,67.566 276.961,67.280 277.142 C 66.915 277.373,66.796 278.295,66.880 280.236 L 67.000 283.000 90.300 283.103 C 109.430 283.188,113.600 283.302,113.600 283.741 C 113.600 284.035,113.960 284.602,114.400 285.000 C 114.840 285.398,115.200 286.056,115.200 286.462 C 115.200 286.868,115.380 287.200,115.600 287.200 C 115.820 287.200,116.000 287.639,116.000 288.176 C 116.000 288.713,116.180 289.264,116.400 289.400 C 116.620 289.536,116.800 290.087,116.800 290.624 C 116.800 291.161,116.980 291.600,117.200 291.600 C 117.420 291.600,117.600 292.140,117.600 292.800 C 117.600 293.736,117.423 294.000,116.795 294.000 C 116.352 294.000,115.632 294.180,115.195 294.400 C 114.758 294.620,114.042 294.980,113.605 295.200 C 113.168 295.420,112.536 295.600,112.200 295.600 C 111.864 295.600,111.277 295.769,110.895 295.976 C 110.513 296.183,109.327 296.664,108.261 297.045 C 107.194 297.427,106.230 297.977,106.118 298.269 C 106.006 298.561,105.394 298.800,104.757 298.800 C 104.121 298.800,103.600 298.980,103.600 299.200 C 103.600 299.420,103.060 299.600,102.400 299.600 C 101.740 299.600,101.200 299.780,101.200 300.000 C 101.200 300.220,100.660 300.400,100.000 300.400 C 99.340 300.400,98.800 300.580,98.800 300.800 C 98.800 301.020,98.361 301.200,97.824 301.200 C 97.287 301.200,96.736 301.380,96.600 301.600 C 96.464 301.820,95.996 302.000,95.560 302.000 C 95.123 302.000,94.380 302.360,93.908 302.800 C 93.436 303.240,92.734 303.600,92.348 303.600 C 91.963 303.600,91.536 303.780,91.400 304.000 C 91.264 304.220,90.803 304.400,90.376 304.400 C 89.949 304.400,89.600 304.580,89.600 304.800 C 89.600 305.020,89.060 305.200,88.400 305.200 C 87.740 305.200,87.200 305.380,87.200 305.600 C 87.200 305.820,86.660 306.000,86.000 306.000 C 85.340 306.000,84.800 306.180,84.800 306.400 C 84.800 306.620,84.182 306.800,83.427 306.800 C 82.405 306.800,81.989 307.005,81.800 307.600 C 81.640 308.104,81.195 308.400,80.597 308.400 C 80.075 308.400,78.362 308.864,76.791 309.430 C 75.220 309.997,73.708 310.373,73.430 310.267 C 73.048 310.120,72.972 310.579,73.117 312.136 C 73.223 313.271,73.465 314.260,73.655 314.333 C 73.845 314.407,74.000 314.992,74.000 315.633 C 74.000 316.700,74.120 316.800,75.400 316.800 C 76.170 316.800,76.800 316.620,76.800 316.400 C 76.800 316.180,77.340 316.000,78.000 316.000 C 78.660 316.000,79.200 315.820,79.200 315.600 C 79.200 315.380,79.740 315.200,80.400 315.200 C 81.060 315.200,81.600 315.020,81.600 314.800 C 81.600 314.580,82.138 314.400,82.797 314.400 C 83.560 314.400,84.174 314.110,84.493 313.600 C 84.796 313.114,85.426 312.800,86.096 312.800 C 86.703 312.800,87.200 312.620,87.200 312.400 C 87.200 312.180,87.639 312.000,88.176 312.000 C 88.713 312.000,89.264 311.820,89.400 311.600 C 89.536 311.380,90.087 311.200,90.624 311.200 C 91.161 311.200,91.600 311.020,91.600 310.800 C 91.600 310.580,92.140 310.400,92.800 310.400 C 93.460 310.400,94.000 310.220,94.000 310.000 C 94.000 309.780,94.463 309.600,95.029 309.600 C 95.594 309.600,96.327 309.330,96.657 309.000 C 96.987 308.670,97.604 308.400,98.029 308.400 C 98.453 308.400,98.800 308.220,98.800 308.000 C 98.800 307.780,99.239 307.600,99.776 307.600 C 100.313 307.600,100.864 307.420,101.000 307.200 C 101.136 306.980,101.676 306.800,102.200 306.800 C 102.724 306.800,103.264 306.620,103.400 306.400 C 103.536 306.180,104.076 306.000,104.600 306.000 C 105.124 306.000,105.664 305.820,105.800 305.600 C 105.936 305.380,106.487 305.200,107.024 305.200 C 107.561 305.200,108.000 305.027,108.000 304.815 C 108.000 304.604,108.720 304.237,109.600 304.000 C 110.480 303.763,111.200 303.396,111.200 303.185 C 111.200 302.973,111.562 302.800,112.005 302.800 C 112.448 302.800,113.213 302.592,113.705 302.338 C 115.626 301.344,116.016 301.200,116.771 301.200 C 117.201 301.200,117.664 301.020,117.800 300.800 C 117.936 300.580,118.476 300.400,119.000 300.400 C 119.524 300.400,120.071 300.209,120.215 299.976 C 120.581 299.384,121.571 300.772,121.587 301.900 C 121.594 302.395,121.780 302.800,122.000 302.800 C 122.220 302.800,122.400 303.340,122.400 304.000 C 122.400 304.660,122.580 305.200,122.800 305.200 C 123.020 305.200,123.200 305.650,123.200 306.200 C 123.200 306.750,123.380 307.200,123.600 307.200 C 123.820 307.200,124.000 307.538,124.000 307.951 C 124.000 308.364,124.270 308.926,124.600 309.200 C 124.930 309.474,125.200 309.850,125.200 310.036 C 125.200 310.719,116.555 319.052,116.029 318.876 C 115.710 318.770,115.601 318.878,115.762 319.139 C 116.120 319.718,111.929 323.910,111.226 323.675 C 110.893 323.564,110.800 323.676,110.980 323.967 C 111.358 324.580,107.361 328.547,106.747 328.167 C 106.478 328.001,106.368 328.104,106.475 328.425 C 106.716 329.147,102.753 333.125,102.045 332.871 C 101.702 332.748,101.561 332.884,101.676 333.229 C 101.785 333.556,99.913 335.707,97.131 338.452 C 91.807 343.704,91.690 343.996,93.969 346.367 C 95.670 348.138,97.412 348.556,97.890 347.309 C 98.201 346.500,100.624 344.000,101.098 344.000 C 101.277 344.000,101.688 343.619,102.012 343.153 C 102.335 342.687,103.483 341.472,104.563 340.453 C 106.367 338.750,106.989 338.107,109.072 335.790 C 109.472 335.344,110.295 334.665,110.900 334.280 C 111.505 333.896,112.000 333.401,112.000 333.180 C 112.000 332.657,115.457 329.200,115.980 329.200 C 116.201 329.200,116.695 328.705,117.078 328.100 C 117.461 327.495,118.377 326.460,119.114 325.800 C 122.405 322.851,126.800 318.403,126.800 318.020 C 126.800 316.760,128.196 318.046,128.607 319.686 C 128.756 320.281,129.131 320.977,129.439 321.233 C 129.748 321.489,130.000 322.036,130.000 322.449 C 130.000 322.862,130.180 323.200,130.400 323.200 C 130.620 323.200,130.800 323.650,130.800 324.200 C 130.800 324.750,130.980 325.200,131.200 325.200 C 131.420 325.200,131.600 325.740,131.600 326.400 C 131.600 327.060,131.780 327.600,132.000 327.600 C 132.220 327.600,132.400 328.140,132.400 328.800 C 132.400 329.460,132.580 330.000,132.800 330.000 C 133.020 330.000,133.200 330.444,133.200 330.986 C 133.200 331.562,133.532 332.150,134.000 332.400 C 134.440 332.635,134.800 333.232,134.800 333.726 C 134.800 334.219,135.160 334.883,135.600 335.200 C 136.040 335.517,136.400 336.057,136.400 336.400 C 136.400 336.743,136.760 337.283,137.200 337.600 C 137.640 337.917,138.000 338.331,138.000 338.520 C 138.000 338.708,138.720 339.576,139.600 340.447 C 140.480 341.318,141.200 342.212,141.200 342.432 C 141.200 342.859,141.550 343.336,143.288 345.278 C 143.886 345.946,144.483 346.832,144.615 347.247 C 144.746 347.661,145.022 348.000,145.227 348.000 C 145.432 348.000,145.600 348.480,145.600 349.067 C 145.600 349.653,145.717 350.017,145.859 349.874 C 146.106 349.628,147.588 351.056,147.611 351.561 C 147.617 351.693,148.333 352.577,149.204 353.527 C 150.074 354.476,151.098 355.781,151.479 356.427 C 151.861 357.072,152.314 357.600,152.486 357.600 C 152.659 357.600,152.800 357.777,152.800 357.993 C 152.800 358.209,153.565 359.183,154.500 360.158 L 156.200 361.930 178.600 362.045 L 201.000 362.160 201.200 199.580 L 201.400 37.000 136.640 37.104 C 72.001 37.207,71.879 37.206,71.313 36.397 C 71.001 35.951,70.598 35.678,70.418 35.789 C 70.238 35.900,69.868 35.723,69.596 35.396 C 69.324 35.068,68.764 34.800,68.351 34.800 C 67.938 34.800,67.600 34.620,67.600 34.400 C 67.600 34.180,67.060 34.000,66.400 34.000 C 65.740 34.000,65.200 33.820,65.200 33.600 C 65.200 33.380,64.840 33.200,64.400 33.200 C 63.960 33.200,63.600 33.020,63.600 32.800 C 63.600 32.580,63.060 32.400,62.400 32.400 C 61.740 32.400,61.200 32.220,61.200 32.000 C 61.200 31.780,60.880 31.600,60.488 31.600 C 60.097 31.600,59.517 31.240,59.200 30.800 C 58.883 30.360,58.391 30.000,58.106 30.000 C 57.822 30.000,57.232 29.820,56.795 29.600 C 56.358 29.380,55.642 29.020,55.205 28.800 C 54.768 28.580,54.048 28.400,53.605 28.400 C 53.162 28.400,52.800 28.220,52.800 28.000 C 52.800 27.780,52.590 27.600,52.334 27.600 C 51.588 27.600,48.800 26.277,48.800 25.923 C 48.800 25.745,48.260 25.600,47.600 25.600 C 46.940 25.600,46.400 25.420,46.400 25.200 C 46.400 24.980,46.040 24.800,45.600 24.800 C 45.160 24.800,44.800 24.620,44.800 24.400 C 44.800 24.180,44.260 24.000,43.600 24.000 C 42.940 24.000,42.400 23.820,42.400 23.600 C 42.400 23.380,42.040 23.200,41.600 23.200 C 41.160 23.200,40.800 23.020,40.800 22.800 C 40.800 22.580,40.480 22.400,40.088 22.400 C 39.697 22.400,39.117 22.040,38.800 21.600 C 38.483 21.160,37.813 20.800,37.312 20.800 C 36.810 20.800,36.400 20.620,36.400 20.400 C 36.400 20.180,36.051 20.000,35.624 20.000 C 35.197 20.000,34.736 19.820,34.600 19.600 C 34.464 19.380,33.913 19.200,33.376 19.200 C 32.839 19.200,32.400 19.059,32.400 18.887 C 32.400 18.715,31.545 18.325,30.500 18.019 C 29.455 17.713,28.365 17.134,28.077 16.732 C 27.790 16.329,27.205 16.000,26.777 16.000 C 26.350 16.000,26.000 15.820,26.000 15.600 C 26.000 15.380,25.645 15.200,25.212 15.200 C 24.779 15.200,23.783 14.840,23.000 14.400 C 22.217 13.960,21.221 13.600,20.788 13.600 C 20.355 13.600,20.000 13.420,20.000 13.200 C 20.000 12.980,19.733 12.800,19.406 12.800 C 19.079 12.800,17.934 12.260,16.862 11.600 C 15.789 10.940,14.627 10.400,14.279 10.400 C 13.932 10.400,13.550 10.243,13.432 10.052 C 13.314 9.861,12.043 9.368,10.609 8.957 C 9.174 8.546,8.000 8.073,8.000 7.905 C 8.000 7.737,7.680 7.600,7.288 7.600 C 6.897 7.600,6.317 7.240,6.000 6.800 C 5.683 6.360,5.013 6.000,4.512 6.000 C 4.010 6.000,3.600 5.820,3.600 5.600 C 3.600 5.380,2.880 5.200,2.000 5.200 L 0.400 5.200 0.400 7.000 M35.480 39.600 C 35.986 39.600,36.400 39.747,36.400 39.928 C 36.400 40.108,37.306 40.502,38.414 40.804 C 39.522 41.106,40.624 41.588,40.863 41.876 C 41.102 42.164,41.636 42.400,42.049 42.400 C 42.462 42.400,42.800 42.580,42.800 42.800 C 42.800 43.020,43.160 43.200,43.600 43.200 C 44.040 43.200,44.400 43.380,44.400 43.600 C 44.400 43.820,44.850 44.000,45.400 44.000 C 45.950 44.000,46.400 44.180,46.400 44.400 C 46.400 44.620,46.940 44.800,47.600 44.800 C 48.260 44.800,48.800 44.980,48.800 45.200 C 48.800 45.420,49.117 45.600,49.504 45.600 C 49.891 45.600,50.432 45.960,50.707 46.400 C 50.982 46.840,51.565 47.200,52.003 47.200 C 52.442 47.200,52.800 47.380,52.800 47.600 C 52.800 47.820,53.340 48.000,54.000 48.000 C 54.660 48.000,55.200 48.180,55.200 48.400 C 55.200 48.620,55.549 48.800,55.976 48.800 C 56.403 48.800,56.864 48.980,57.000 49.200 C 57.136 49.420,57.687 49.600,58.224 49.600 C 58.761 49.600,59.200 49.780,59.200 50.000 C 59.200 50.220,59.650 50.400,60.200 50.400 C 61.633 50.400,61.478 51.499,59.797 53.273 C 59.028 54.084,58.394 54.984,58.386 55.273 C 58.378 55.563,57.298 56.779,55.986 57.974 C 54.674 59.170,53.600 60.290,53.600 60.463 C 53.600 60.636,52.295 62.109,50.700 63.736 C 49.105 65.363,47.290 67.258,46.666 67.947 C 45.248 69.514,44.800 69.527,44.800 68.000 C 44.800 67.340,44.620 66.800,44.400 66.800 C 44.180 66.800,44.000 66.260,44.000 65.600 C 44.000 64.940,43.820 64.400,43.600 64.400 C 43.380 64.400,43.200 64.113,43.200 63.762 C 43.200 63.411,42.855 62.640,42.434 62.048 C 42.013 61.457,41.543 60.302,41.389 59.482 C 41.235 58.662,40.950 57.893,40.755 57.772 C 40.560 57.651,40.400 57.124,40.400 56.600 C 40.400 56.076,40.220 55.536,40.000 55.400 C 39.780 55.264,39.600 54.860,39.600 54.503 C 39.600 53.603,38.011 50.400,37.564 50.400 C 37.364 50.400,37.200 49.860,37.200 49.200 C 37.200 48.540,37.020 48.000,36.800 48.000 C 36.580 48.000,36.400 47.460,36.400 46.800 C 36.400 46.140,36.220 45.600,36.000 45.600 C 35.780 45.600,35.600 45.150,35.600 44.600 C 35.600 44.050,35.420 43.600,35.200 43.600 C 34.980 43.600,34.800 43.075,34.800 42.433 C 34.800 41.792,34.648 41.207,34.462 41.133 C 34.276 41.060,33.993 40.460,33.834 39.800 C 33.599 38.832,33.642 38.697,34.052 39.100 C 34.331 39.375,34.974 39.600,35.480 39.600 M113.243 141.400 C 113.737 142.390,114.380 143.200,114.671 143.200 C 114.962 143.200,115.200 143.560,115.200 144.000 C 115.200 144.440,115.380 144.800,115.600 144.800 C 115.820 144.800,116.000 145.160,116.000 145.600 C 116.000 146.040,116.135 146.401,116.300 146.403 C 116.465 146.405,116.801 146.810,117.048 147.303 C 118.430 150.073,118.943 150.880,119.444 151.072 C 119.750 151.190,120.000 151.544,120.000 151.860 C 120.000 152.175,120.360 152.820,120.800 153.292 C 121.240 153.764,121.600 154.477,121.600 154.875 C 121.600 155.274,121.780 155.600,122.000 155.600 C 122.220 155.600,122.400 155.870,122.400 156.200 C 122.400 156.530,122.580 156.800,122.800 156.800 C 123.020 156.800,123.200 157.070,123.200 157.400 C 123.200 157.730,123.380 158.000,123.600 158.000 C 123.820 158.000,124.000 158.360,124.000 158.800 C 124.000 159.240,124.167 159.600,124.371 159.600 C 124.575 159.600,125.060 160.320,125.448 161.200 C 125.836 162.080,126.299 162.800,126.477 162.800 C 126.655 162.800,126.800 163.160,126.800 163.600 C 126.800 164.040,126.980 164.400,127.200 164.400 C 127.420 164.400,127.600 164.629,127.600 164.909 C 127.600 165.189,128.110 166.044,128.732 166.809 C 129.355 167.574,130.119 168.785,130.430 169.500 C 130.741 170.215,131.131 170.800,131.298 170.800 C 131.464 170.800,131.600 171.160,131.600 171.600 C 131.600 172.040,131.780 172.400,132.000 172.400 C 132.220 172.400,132.400 172.588,132.400 172.817 C 132.400 173.046,132.760 173.620,133.200 174.092 C 133.640 174.564,134.000 175.187,134.000 175.475 C 134.000 175.764,134.180 176.000,134.400 176.000 C 134.659 176.000,134.800 181.133,134.800 190.600 C 134.800 198.630,134.704 205.200,134.587 205.200 C 134.257 205.200,131.953 202.760,130.415 200.782 C 129.653 199.802,128.898 198.943,128.737 198.874 C 128.576 198.805,128.555 198.460,128.690 198.109 C 128.854 197.682,128.779 197.566,128.465 197.760 C 127.974 198.063,126.800 197.148,126.800 196.462 C 126.800 196.245,126.665 196.007,126.500 195.933 C 126.335 195.860,125.390 194.778,124.400 193.529 C 121.513 189.886,121.200 189.455,121.200 189.119 C 121.200 188.943,120.930 188.800,120.600 188.800 C 120.270 188.800,120.000 188.480,120.000 188.088 C 120.000 187.697,119.640 187.117,119.200 186.800 C 118.760 186.483,118.400 185.903,118.400 185.512 C 118.400 185.120,118.220 184.800,118.000 184.800 C 117.780 184.800,117.600 184.440,117.600 184.000 C 117.600 183.560,117.420 183.200,117.200 183.200 C 116.980 183.200,116.800 183.022,116.800 182.805 C 116.800 182.445,116.083 181.443,114.975 180.255 C 114.742 180.005,114.293 179.215,113.978 178.500 C 113.663 177.785,113.269 177.200,113.102 177.200 C 112.936 177.200,112.800 176.840,112.800 176.400 C 112.800 175.960,112.620 175.600,112.400 175.600 C 112.180 175.600,112.000 175.240,112.000 174.800 C 112.000 174.360,111.820 174.000,111.600 174.000 C 111.380 174.000,111.200 173.642,111.200 173.203 C 111.200 172.765,110.840 172.182,110.400 171.907 C 109.960 171.632,109.600 171.091,109.600 170.704 C 109.600 170.317,109.459 170.000,109.286 170.000 C 109.113 170.000,108.778 169.055,108.541 167.900 C 108.304 166.745,107.729 164.450,107.264 162.800 C 106.799 161.150,106.415 159.133,106.409 158.319 C 106.404 157.504,106.191 156.379,105.936 155.819 C 105.416 154.679,105.818 152.190,107.262 147.600 C 108.553 143.497,108.931 142.641,109.730 142.000 C 110.142 141.670,110.866 141.006,111.339 140.524 C 111.813 140.043,112.232 139.638,112.272 139.624 C 112.312 139.611,112.748 140.410,113.243 141.400 M181.200 367.594 C 158.276 367.832,159.642 367.508,163.189 371.878 C 164.295 373.240,165.200 374.505,165.200 374.689 C 165.200 374.873,165.560 375.283,166.000 375.600 C 166.440 375.917,166.803 376.362,166.806 376.588 C 166.810 376.815,167.710 377.981,168.806 379.179 C 169.903 380.378,170.800 381.593,170.800 381.879 C 170.800 382.166,170.980 382.400,171.200 382.400 C 171.420 382.400,171.600 382.658,171.600 382.973 C 171.600 383.288,171.931 383.651,172.336 383.780 C 172.741 383.908,173.325 384.505,173.635 385.107 C 173.945 385.708,174.289 386.290,174.400 386.400 C 174.511 386.510,174.850 387.083,175.154 387.673 C 175.458 388.264,176.307 389.344,177.041 390.073 C 177.774 390.803,178.380 391.585,178.387 391.812 C 178.394 392.038,178.760 392.483,179.200 392.800 C 179.640 393.117,180.000 393.657,180.000 394.000 C 180.000 394.343,180.360 394.883,180.800 395.200 C 181.240 395.517,181.600 395.979,181.600 396.226 C 181.600 397.748,182.777 397.954,192.208 398.078 L 201.400 398.200 201.400 382.700 C 201.400 374.175,201.310 367.242,201.200 367.294 C 201.090 367.346,192.090 367.481,181.200 367.594 " stroke="none" fill="#fcfcfc" fill-rule="evenodd"></path><path id="path1" d="M212.800 118.171 C 212.800 190.521,212.861 198.404,213.429 198.971 C 214.322 199.865,215.191 199.756,217.222 198.498 C 218.200 197.891,219.495 197.141,220.100 196.830 C 220.705 196.519,221.200 196.115,221.200 195.932 C 221.200 195.750,221.432 195.600,221.715 195.600 C 221.998 195.600,222.853 195.067,223.615 194.416 C 224.377 193.765,225.225 193.225,225.500 193.216 C 225.775 193.207,226.000 193.020,226.000 192.800 C 226.000 192.580,226.169 192.400,226.376 192.400 C 226.740 192.400,231.017 189.775,237.896 185.330 C 239.709 184.158,241.290 183.200,241.410 183.200 C 241.529 183.200,243.505 181.940,245.800 180.400 C 248.095 178.860,250.077 177.600,250.203 177.600 C 250.330 177.600,250.820 177.240,251.292 176.800 C 251.764 176.360,252.387 176.000,252.675 176.000 C 252.964 176.000,253.200 175.820,253.200 175.600 C 253.200 175.380,253.436 175.200,253.725 175.200 C 254.013 175.200,254.598 174.885,255.025 174.500 C 255.451 174.115,256.295 173.545,256.900 173.232 C 257.505 172.920,258.000 172.515,258.000 172.332 C 258.000 172.150,258.193 172.000,258.428 172.000 C 258.663 172.000,259.641 171.460,260.600 170.800 C 261.559 170.140,262.433 169.600,262.541 169.600 C 262.745 169.600,267.877 166.276,268.625 165.659 C 268.859 165.466,269.478 165.080,270.000 164.800 C 270.522 164.520,271.310 163.956,271.750 163.546 C 272.191 163.136,272.705 162.800,272.893 162.800 C 273.082 162.800,274.570 161.900,276.200 160.800 C 277.830 159.700,279.337 158.800,279.549 158.800 C 279.760 158.800,279.993 158.637,280.067 158.437 C 280.140 158.238,282.123 156.899,284.473 155.463 C 286.824 154.027,290.656 151.580,292.989 150.026 C 295.322 148.472,297.370 147.200,297.540 147.200 C 297.710 147.200,298.206 146.885,298.642 146.500 C 299.647 145.612,301.591 144.417,302.500 144.129 C 302.885 144.007,303.200 143.748,303.200 143.553 C 303.200 143.359,303.443 143.200,303.741 143.200 C 304.038 143.200,304.846 142.660,305.537 142.000 C 306.228 141.340,307.064 140.800,307.396 140.800 C 307.728 140.800,308.000 140.620,308.000 140.400 C 308.000 140.180,308.345 140.000,308.767 140.000 C 309.188 140.000,309.593 139.847,309.667 139.660 C 309.740 139.474,311.420 138.271,313.400 136.987 C 315.380 135.703,318.289 133.786,319.865 132.726 C 321.441 131.667,322.898 130.800,323.103 130.800 C 323.308 130.800,323.802 130.440,324.200 130.000 C 324.598 129.560,325.166 129.200,325.462 129.200 C 325.758 129.200,326.000 129.050,326.000 128.868 C 326.000 128.685,326.495 128.285,327.100 127.978 C 327.705 127.672,329.225 126.742,330.478 125.911 C 331.731 125.080,332.918 124.400,333.116 124.400 C 333.314 124.400,333.802 124.040,334.200 123.600 C 334.598 123.160,335.078 122.800,335.267 122.800 C 335.597 122.800,339.019 120.658,343.600 117.584 C 344.810 116.772,346.368 115.818,347.062 115.463 C 347.756 115.109,348.589 114.554,348.913 114.230 C 349.449 113.694,351.106 112.670,353.523 111.383 C 354.031 111.112,354.974 110.420,355.620 109.845 C 356.265 109.270,357.065 108.800,357.397 108.800 C 357.728 108.800,358.000 108.620,358.000 108.400 C 358.000 108.180,358.242 108.000,358.538 108.000 C 358.834 108.000,359.402 107.640,359.800 107.200 C 360.198 106.760,360.670 106.400,360.848 106.400 C 361.180 106.400,368.039 102.077,368.400 101.641 C 368.510 101.508,369.124 101.129,369.763 100.799 C 371.938 99.679,373.200 98.185,373.195 96.740 C 373.186 94.617,372.782 93.600,371.948 93.600 C 371.531 93.600,370.877 93.443,370.495 93.250 C 367.402 91.692,366.224 91.200,365.586 91.200 C 365.180 91.200,364.736 91.020,364.600 90.800 C 364.464 90.580,363.834 90.400,363.200 90.400 C 362.566 90.400,361.936 90.220,361.800 90.000 C 361.664 89.780,361.051 89.600,360.438 89.600 C 359.825 89.600,358.998 89.240,358.600 88.800 C 358.202 88.360,357.465 88.000,356.962 88.000 C 356.459 88.000,355.936 87.820,355.800 87.600 C 355.664 87.380,355.023 87.200,354.376 87.200 C 353.729 87.200,353.200 87.020,353.200 86.800 C 353.200 86.580,352.733 86.400,352.163 86.400 C 351.593 86.400,350.669 86.040,350.109 85.600 C 349.550 85.160,348.767 84.800,348.370 84.800 C 347.972 84.800,347.536 84.620,347.400 84.400 C 347.264 84.180,346.724 84.000,346.200 84.000 C 345.676 84.000,345.136 83.820,345.000 83.600 C 344.864 83.380,344.238 83.200,343.610 83.200 C 342.981 83.200,342.407 83.065,342.333 82.900 C 342.189 82.575,338.771 81.166,336.200 80.372 C 335.320 80.101,333.650 79.456,332.489 78.939 C 331.328 78.423,330.124 78.000,329.813 78.000 C 329.502 78.000,329.136 77.820,329.000 77.600 C 328.864 77.380,328.268 77.196,327.676 77.191 C 327.084 77.186,326.150 76.830,325.600 76.400 C 325.050 75.970,324.206 75.614,323.724 75.609 C 323.242 75.604,322.736 75.420,322.600 75.200 C 322.464 74.980,321.744 74.800,321.000 74.800 C 320.256 74.800,319.536 74.620,319.400 74.400 C 319.264 74.180,318.713 74.000,318.176 74.000 C 317.639 74.000,317.200 73.820,317.200 73.600 C 317.200 73.380,316.935 73.200,316.612 73.200 C 316.289 73.200,315.383 72.840,314.600 72.400 C 313.817 71.960,312.729 71.600,312.182 71.600 C 311.636 71.600,310.877 71.433,310.495 71.229 C 309.090 70.477,306.156 69.264,304.600 68.789 C 303.720 68.521,302.687 68.144,302.305 67.951 C 301.923 67.758,301.379 67.600,301.095 67.600 C 300.812 67.600,299.504 67.066,298.190 66.413 C 296.875 65.759,295.543 65.219,295.228 65.213 C 294.460 65.196,292.035 64.417,290.800 63.791 C 289.874 63.322,287.860 62.573,279.400 59.553 C 277.640 58.925,275.885 58.408,275.500 58.405 C 275.115 58.402,274.800 58.249,274.800 58.064 C 274.800 57.879,274.035 57.488,273.100 57.194 C 272.165 56.901,271.229 56.512,271.020 56.330 C 270.811 56.149,270.237 56.000,269.744 56.000 C 269.251 56.000,268.736 55.820,268.600 55.600 C 268.464 55.380,267.913 55.200,267.376 55.200 C 266.839 55.200,266.400 55.020,266.400 54.800 C 266.400 54.580,266.123 54.400,265.784 54.400 C 265.445 54.400,264.462 54.040,263.600 53.600 C 262.738 53.160,261.662 52.800,261.211 52.800 C 260.759 52.800,260.077 52.641,259.695 52.447 C 259.313 52.252,258.550 51.910,258.000 51.687 C 257.450 51.463,256.147 50.902,255.104 50.440 C 254.062 49.978,252.979 49.600,252.699 49.600 C 252.418 49.600,251.201 49.217,249.994 48.750 C 247.569 47.810,242.390 45.912,239.600 44.940 C 238.610 44.595,237.620 44.185,237.400 44.029 C 237.180 43.872,236.190 43.514,235.200 43.233 C 234.210 42.952,233.087 42.560,232.705 42.361 C 232.323 42.162,231.744 42.000,231.418 42.000 C 231.091 42.000,230.183 41.640,229.400 41.200 C 228.617 40.760,227.632 40.400,227.211 40.400 C 226.791 40.400,226.336 40.220,226.200 40.000 C 226.064 39.780,225.608 39.600,225.186 39.600 C 224.764 39.600,223.830 39.241,223.110 38.801 C 222.006 38.129,221.091 38.003,217.300 38.001 L 212.800 38.000 212.800 118.171 M293.600 161.711 C 292.830 162.176,289.625 164.231,286.477 166.278 C 283.330 168.325,280.613 170.000,280.439 170.000 C 280.266 170.000,279.798 170.360,279.400 170.800 C 279.002 171.240,278.472 171.600,278.223 171.600 C 277.974 171.600,277.147 172.133,276.385 172.784 C 275.623 173.435,274.858 173.975,274.684 173.984 C 274.510 173.993,273.880 174.332,273.284 174.737 C 272.688 175.143,271.480 175.921,270.600 176.466 C 269.720 177.012,267.609 178.390,265.909 179.529 C 264.210 180.668,262.715 181.600,262.587 181.600 C 262.460 181.600,261.296 182.320,260.000 183.200 C 258.704 184.080,257.536 184.800,257.405 184.800 C 257.274 184.800,256.790 185.151,256.329 185.580 C 255.869 186.009,254.893 186.644,254.162 186.991 C 253.430 187.338,252.060 188.202,251.116 188.911 C 250.172 189.620,248.860 190.470,248.200 190.799 C 247.540 191.129,246.910 191.501,246.800 191.626 C 246.454 192.018,242.867 194.400,242.622 194.400 C 242.383 194.400,239.650 196.112,235.487 198.869 C 234.216 199.711,233.046 200.407,232.887 200.416 C 232.729 200.425,231.977 200.965,231.215 201.616 C 230.453 202.267,229.598 202.800,229.315 202.800 C 229.032 202.800,228.800 202.980,228.800 203.200 C 228.800 203.420,228.571 203.600,228.291 203.600 C 228.011 203.600,227.156 204.099,226.391 204.708 C 225.626 205.318,224.460 206.083,223.800 206.408 C 223.140 206.733,222.510 207.098,222.400 207.219 C 221.587 208.113,219.481 209.203,218.538 209.218 C 217.260 209.237,214.064 210.036,213.300 210.526 C 212.905 210.780,212.800 220.837,212.800 258.608 L 212.800 306.369 213.675 307.184 C 214.875 308.302,215.623 308.211,217.228 306.755 C 217.983 306.071,219.860 304.505,221.400 303.277 C 222.940 302.048,224.290 300.941,224.400 300.816 C 224.510 300.691,225.590 299.782,226.800 298.796 C 228.010 297.810,229.209 296.823,229.465 296.602 C 229.720 296.381,230.955 295.390,232.208 294.400 C 233.462 293.410,235.055 292.060,235.749 291.400 C 236.443 290.740,237.668 289.708,238.471 289.106 C 239.274 288.504,240.172 287.784,240.466 287.506 C 240.760 287.228,241.851 286.317,242.891 285.481 C 243.930 284.646,245.010 283.734,245.290 283.455 C 245.571 283.176,246.099 282.780,246.465 282.574 C 246.831 282.368,247.821 281.565,248.665 280.788 C 249.509 280.012,251.006 278.752,251.990 277.988 C 252.975 277.225,254.446 275.925,255.259 275.100 C 256.072 274.275,256.896 273.600,257.090 273.600 C 257.285 273.600,258.101 273.015,258.903 272.300 C 259.706 271.585,261.475 270.100,262.835 269.000 C 264.194 267.900,266.138 266.273,267.153 265.385 C 268.169 264.497,269.630 263.294,270.400 262.713 C 271.170 262.131,272.790 260.744,274.000 259.629 C 275.210 258.515,276.327 257.602,276.482 257.602 C 276.637 257.601,277.178 257.195,277.685 256.700 C 278.566 255.839,280.003 254.668,283.054 252.323 C 283.825 251.731,285.322 250.471,286.382 249.523 C 287.442 248.575,289.071 247.170,290.003 246.400 C 290.934 245.630,292.530 244.240,293.548 243.311 C 294.567 242.383,295.559 241.618,295.753 241.611 C 295.947 241.605,296.397 241.280,296.753 240.889 C 297.109 240.497,298.210 239.557,299.200 238.799 C 300.190 238.041,301.090 237.320,301.200 237.197 C 301.310 237.073,301.916 236.576,302.546 236.092 C 303.177 235.608,304.958 234.084,306.503 232.706 C 308.049 231.328,309.693 229.943,310.157 229.629 C 310.621 229.315,311.646 228.505,312.434 227.829 C 313.223 227.153,314.662 225.970,315.632 225.200 C 316.602 224.430,318.117 223.161,318.998 222.379 C 319.879 221.598,322.040 219.819,323.800 218.425 C 325.560 217.032,327.900 215.131,329.000 214.201 C 332.192 211.500,336.534 207.868,337.360 207.208 C 337.778 206.873,338.415 206.324,338.774 205.986 C 339.134 205.648,340.142 204.848,341.014 204.209 C 341.886 203.569,342.780 202.853,343.000 202.617 C 343.220 202.381,344.210 201.563,345.200 200.800 C 347.590 198.956,351.883 195.400,353.500 193.922 C 355.433 192.157,355.019 188.800,352.869 188.800 C 352.611 188.800,352.400 188.620,352.400 188.400 C 352.400 188.180,352.040 188.000,351.600 188.000 C 351.160 188.000,350.800 187.820,350.800 187.600 C 350.800 187.380,350.462 187.200,350.049 187.200 C 349.636 187.200,349.077 186.934,348.808 186.609 C 348.378 186.092,346.779 185.254,343.200 183.671 C 342.650 183.428,341.246 182.682,340.080 182.014 C 338.914 181.346,337.718 180.800,337.423 180.800 C 337.127 180.800,336.782 180.530,336.655 180.200 C 336.529 179.870,336.144 179.600,335.801 179.600 C 335.268 179.600,331.959 178.020,330.000 176.829 C 329.157 176.317,325.671 174.802,325.304 174.789 C 325.137 174.783,324.293 174.243,323.429 173.589 C 322.565 172.935,321.575 172.384,321.229 172.364 C 320.883 172.344,319.700 171.809,318.600 171.176 C 317.500 170.543,316.150 169.812,315.600 169.552 C 314.167 168.875,305.590 164.553,301.655 162.524 C 297.820 160.547,295.857 160.349,293.600 161.711 M291.046 258.400 C 290.092 259.280,289.137 260.000,288.925 260.000 C 288.713 260.000,288.103 260.474,287.570 261.054 C 287.036 261.634,285.880 262.636,285.000 263.282 C 284.120 263.927,282.495 265.297,281.389 266.327 C 280.282 267.357,278.723 268.692,277.923 269.294 C 277.124 269.896,276.227 270.616,275.930 270.894 C 274.750 272.002,272.066 274.264,270.584 275.400 C 269.723 276.060,268.384 277.153,267.609 277.829 C 266.834 278.505,265.791 279.335,265.291 279.673 C 264.792 280.011,263.712 280.898,262.891 281.644 C 262.071 282.390,260.410 283.808,259.200 284.795 C 257.990 285.782,256.910 286.690,256.800 286.813 C 256.690 286.937,254.737 288.559,252.460 290.419 C 250.183 292.279,247.663 294.337,246.860 294.994 C 245.122 296.416,233.433 306.132,231.996 307.349 C 231.444 307.817,230.004 309.008,228.796 309.995 C 227.588 310.981,226.510 311.895,226.400 312.024 C 225.512 313.066,219.952 316.800,219.288 316.800 C 218.826 316.800,218.336 316.980,218.200 317.200 C 218.064 317.420,217.435 317.600,216.802 317.600 C 215.408 317.600,213.527 318.276,213.114 318.925 C 212.948 319.186,212.809 337.085,212.806 358.700 L 212.800 398.000 215.445 398.000 L 218.090 398.000 222.045 394.116 C 224.220 391.980,226.000 390.000,226.000 389.716 C 226.000 389.432,226.225 389.198,226.500 389.196 C 226.775 389.194,229.095 387.079,231.656 384.496 C 245.670 370.363,270.751 345.672,271.700 345.074 C 272.305 344.693,272.800 344.193,272.800 343.962 C 272.800 343.522,273.782 342.400,274.167 342.400 C 274.549 342.400,276.000 341.041,276.000 340.683 C 276.000 340.276,276.750 339.560,277.790 338.973 C 278.206 338.739,278.739 338.199,278.973 337.773 C 279.208 337.348,279.614 336.862,279.875 336.694 C 280.665 336.185,288.400 328.480,288.400 328.202 C 288.400 327.869,289.226 327.117,290.190 326.573 C 290.606 326.339,291.139 325.806,291.373 325.390 C 291.951 324.366,292.520 323.761,293.090 323.564 C 293.969 323.261,332.090 285.011,332.447 284.074 C 333.210 282.073,332.894 281.235,330.945 280.090 C 329.924 279.491,328.593 278.595,327.987 278.100 C 327.381 277.605,326.685 277.200,326.442 277.200 C 326.199 277.200,326.000 277.041,326.000 276.846 C 326.000 276.651,325.378 276.196,324.617 275.835 C 323.856 275.474,323.129 275.008,323.000 274.800 C 322.871 274.592,322.099 274.107,321.283 273.724 C 320.467 273.340,319.451 272.705,319.025 272.313 C 318.598 271.921,318.028 271.600,317.758 271.600 C 317.488 271.600,317.207 271.457,317.133 271.283 C 316.926 270.791,300.706 260.000,300.173 260.000 C 300.059 260.000,299.619 259.676,299.193 259.279 C 296.197 256.488,293.443 256.191,291.046 258.400 " stroke="none" fill="#75fb13" fill-rule="evenodd"></path><path id="path2" d="" stroke="none" fill="#100ecc0" fill-rule="evenodd"></path><path id="path3" d="" stroke="none" fill="#100ecc0" fill-rule="evenodd"></path><path id="path4" d="" stroke="none" fill="#100ecc0" fill-rule="evenodd"></path></g></svg>