<svg id="Camada_1" data-name="Camada 1" xmlns="http://www.w3.org/2000/svg" viewBox="0 0 1728.49 443.38"><defs><style>.cls-1,.cls-2{fill:#fff;}.cls-1{fill-rule:evenodd;}</style></defs><path class="cls-1" d="M131.88,162.22l19.64,32.63v27.56c-6.78-8.24-41.08-42.68-19.64-60.19M62.31,76,90.24,88.53,74.56,106.34ZM205.82,358V382H192.15L173.85,358ZM37.42,50.8l59.7,26.92h108.7v273.7h-37L151.4,328.47l-6.5-15.84-27,26.82L115.49,337l28-27.83-4.62-11.25L100.18,313l-1.27-3.23,38.63-15.11-4.2-10.23H94V281h37.88Z"/><path class="cls-2" d="M276.82,330.64l21.36-20.16A40.74,40.74,0,0,0,311,280.85V171.6a40.7,40.7,0,0,0-14.4-31.07l-19.74-16.74Z"/><path class="cls-2" d="M333.48,171.81V277.18l25.71-24.26A40.74,40.74,0,0,0,372,223.3h0a40.74,40.74,0,0,0-14.4-31.08Z"/><path class="cls-2" d="M239.9,92.51,222.62,77.87v303.9l18.9-17.83a40.74,40.74,0,0,0,12.78-29.63V123.59A40.72,40.72,0,0,0,239.9,92.51Z"/><path class="cls-2" d="M617.42,382V303.66c0-29.33-11-40.79-47.67-40.79H501.91V382H440V77.69H594.5c56.38,0,93.5,37.59,93.5,88,0,32.54-16,60-45.38,70.58,27,8.71,37.13,23.84,37.13,59.59V382ZM501.91,130.4v81.13h79.75c33.92,0,46.76-17,46.76-40.33,0-23.84-12.84-40.8-44.47-40.8Z"/><path class="cls-2" d="M847.51,382a87.46,87.46,0,0,1-3.67-20.17C829.63,377.46,805.79,388,775.54,388c-51.33,0-75.17-25.21-75.17-61.88,0-65.08,43.55-72.42,103.59-80.67,29.79-4.12,38-10.08,38-25.67,0-14.66-14.66-23.37-38-23.37-27,0-38,13.29-40.79,33.46H707.71c.91-46.76,26.58-79.3,99-79.3,71.51,0,96.26,32.09,96.26,88.92V382Zm-4.13-110.46c-6,6-16.5,9.17-38.5,13.29C771,291.29,760,300.91,760,320.16c0,17,10.08,25.21,28.88,25.21,30.71,0,53.62-22.46,54.08-49Z"/><path class="cls-2" d="M1057,233.53h55.46V297.7c0,47.67-27.5,90.3-91.21,90.3-66,0-92.13-42.17-92.13-90.75V95.57h58.67v61h124.67V198.7H987.76v92.59c0,28.42,10.08,44.92,34.38,44.92,23.83,0,34.83-16,34.83-44Z"/><path class="cls-2" d="M1131.68,232.62c0-103.13,52.71-165,146.21-165s145.3,61.88,145.3,166.38-51.79,158.59-145.3,158.59S1131.68,335.29,1131.68,232.62ZM1360.4,234c0-72-29.34-110-82.51-110-53.62,0-83.42,38-83.42,110S1225.18,338,1277.89,338C1323.73,338,1360.4,306,1360.4,234Z"/><path class="cls-2" d="M1611.58,167.53c-3.2-31.17-22-46.29-60.5-46.29-35.75,0-54.54,12.83-54.54,35.75,0,19.25,13.29,30.25,47.21,38.5,34.37,8.25,67.83,16.5,90.29,26.58,26.59,11.92,47.67,30.72,47.67,73.8,0,66.92-50.42,96.71-121.46,96.71-75.17,0-127.43-33.46-128.8-101.75h61.42c.92,31.17,27,50.42,67.84,50.42,37.58,0,59.13-16,59.13-43.09,0-17.87-9.17-30.25-47.22-38.5-37.58-8.25-61.87-13.75-83.42-23.38-32.54-14.66-50.87-36.66-50.87-75.17,0-54.54,37.12-93.5,111.38-93.5,77,0,120.09,41.71,122.38,99.92Z"/></svg>