<svg id="Camada_1" data-name="Camada 1" xmlns="http://www.w3.org/2000/svg" viewBox="0 0 1728.49 443.38"><defs><style>.cls-1,.cls-3{fill:#232323;}.cls-1{fill-rule:evenodd;}.cls-2{fill:#5aff00;}</style></defs><path class="cls-1" d="M154.36,162.22,174,194.85v27.56c-6.78-8.24-41.09-42.68-19.64-60.19M84.79,76l27.93,12.56L97,106.34ZM228.3,358V382H214.62L196.33,358ZM59.9,50.8l59.69,26.92H228.3v273.7h-37l-17.45-22.95-6.51-15.84-27,26.82L138,337l28-27.83-4.62-11.25L122.65,313l-1.26-3.23L160,294.7l-4.2-10.23H116.5V281h37.89Z"/><path class="cls-2" d="M299.29,330.64l21.37-20.16a40.74,40.74,0,0,0,12.78-29.63V171.6A40.73,40.73,0,0,0,319,140.53l-19.75-16.74Z"/><path class="cls-2" d="M356,171.81V277.18l25.71-24.26a40.7,40.7,0,0,0,12.78-29.62h0A40.71,40.71,0,0,0,380,192.22Z"/><path class="cls-2" d="M262.38,92.51,245.09,77.87v303.9L264,363.94a40.78,40.78,0,0,0,12.78-29.63V123.59A40.76,40.76,0,0,0,262.38,92.51Z"/><path class="cls-3" d="M639.89,382V303.66c0-29.33-11-40.79-47.67-40.79H524.39V382H462.51V77.69H617c56.38,0,93.51,37.59,93.51,88,0,32.54-16,60-45.38,70.58,27,8.71,37.13,23.84,37.13,59.59V382ZM524.39,130.4v81.13h79.75c33.92,0,46.75-17,46.75-40.33,0-23.84-12.83-40.8-44.46-40.8Z"/><path class="cls-3" d="M870,382a87.47,87.47,0,0,1-3.66-20.17C852.11,377.46,828.27,388,798,388c-51.34,0-75.17-25.21-75.17-61.88,0-65.08,43.54-72.42,103.59-80.67,29.79-4.12,38-10.08,38-25.67,0-14.66-14.67-23.37-38-23.37-27.05,0-38.05,13.29-40.8,33.46H730.18c.92-46.76,26.59-79.3,99-79.3,71.5,0,96.25,32.09,96.25,88.92V382Zm-4.12-110.46c-6,6-16.5,9.17-38.51,13.29-33.91,6.42-44.91,16-44.91,35.29,0,17,10.08,25.21,28.87,25.21,30.71,0,53.63-22.46,54.09-49Z"/><path class="cls-3" d="M1079.45,233.53h55.46V297.7c0,47.67-27.5,90.3-91.21,90.3-66,0-92.13-42.17-92.13-90.75V95.57h58.67v61h124.67V198.7H1010.24v92.59c0,28.42,10.08,44.92,34.37,44.92,23.84,0,34.84-16,34.84-44Z"/><path class="cls-3" d="M1154.15,232.62c0-103.13,52.72-165,146.22-165s145.3,61.88,145.3,166.38-51.79,158.59-145.3,158.59S1154.15,335.29,1154.15,232.62ZM1382.88,234c0-72-29.34-110-82.51-110-53.63,0-83.42,38-83.42,110S1247.66,338,1300.37,338C1346.21,338,1382.88,306,1382.88,234Z"/><path class="cls-3" d="M1634.06,167.53c-3.21-31.17-22-46.29-60.5-46.29-35.75,0-54.55,12.83-54.55,35.75,0,19.25,13.3,30.25,47.21,38.5,34.38,8.25,67.84,16.5,90.3,26.58,26.59,11.92,47.67,30.72,47.67,73.8,0,66.92-50.42,96.71-121.47,96.71-75.17,0-127.42-33.46-128.79-101.75h61.42c.91,31.17,27,50.42,67.83,50.42,37.59,0,59.13-16,59.13-43.09,0-17.87-9.17-30.25-47.21-38.5-37.59-8.25-61.88-13.75-83.42-23.38-32.54-14.66-50.88-36.66-50.88-75.17,0-54.54,37.13-93.5,111.38-93.5,77,0,120.09,41.71,122.38,99.92Z"/></svg>