<svg id="Camada_1" data-name="Camada 1" xmlns="http://www.w3.org/2000/svg" viewBox="0 0 1728.49 443.38"><defs><style>.cls-1,.cls-3{fill:#fff;}.cls-1{fill-rule:evenodd;}.cls-2{fill:#5aff00;}</style></defs><path class="cls-1" d="M136.27,162.22l19.64,32.63v27.56c-6.78-8.24-41.08-42.68-19.64-60.19M66.7,76,94.63,88.53,79,106.34ZM210.21,358V382H196.53L178.24,358ZM41.81,50.8l59.7,26.92h108.7v273.7h-37l-17.45-22.95-6.5-15.84-27,26.82L119.88,337l28-27.83-4.62-11.25L104.57,313l-1.27-3.23,38.63-15.11-4.2-10.23H98.42V281H136.3Z"/><path class="cls-2" d="M281.21,330.64l21.36-20.16a40.74,40.74,0,0,0,12.78-29.63V171.6A40.7,40.7,0,0,0,301,140.53l-19.74-16.74Z"/><path class="cls-2" d="M337.87,171.81V277.18l25.71-24.26a40.74,40.74,0,0,0,12.78-29.62h0A40.74,40.74,0,0,0,362,192.22Z"/><path class="cls-2" d="M244.29,92.51,227,77.87v303.9l18.9-17.83a40.74,40.74,0,0,0,12.78-29.63V123.59A40.76,40.76,0,0,0,244.29,92.51Z"/><path class="cls-3" d="M621.8,382V303.66c0-29.33-11-40.79-47.67-40.79H506.3V382H444.42V77.69H598.89c56.37,0,93.5,37.59,93.5,88,0,32.54-16,60-45.38,70.58,27,8.71,37.13,23.84,37.13,59.59V382ZM506.3,130.4v81.13h79.75c33.92,0,46.75-17,46.75-40.33,0-23.84-12.83-40.8-44.46-40.8Z"/><path class="cls-3" d="M851.89,382a88,88,0,0,1-3.66-20.17C834,377.46,810.18,388,779.93,388c-51.33,0-75.17-25.21-75.17-61.88,0-65.08,43.55-72.42,103.59-80.67,29.79-4.12,38-10.08,38-25.67,0-14.66-14.66-23.37-38-23.37-27,0-38,13.29-40.79,33.46H712.09c.92-46.76,26.59-79.3,99-79.3,71.51,0,96.26,32.09,96.26,88.92V382Zm-4.12-110.46c-6,6-16.5,9.17-38.5,13.29-33.92,6.42-44.92,16-44.92,35.29,0,17,10.08,25.21,28.87,25.21,30.71,0,53.63-22.46,54.09-49Z"/><path class="cls-3" d="M1061.36,233.53h55.46V297.7c0,47.67-27.5,90.3-91.21,90.3-66,0-92.13-42.17-92.13-90.75V95.57h58.67v61h124.67V198.7H992.15v92.59c0,28.42,10.08,44.92,34.38,44.92,23.83,0,34.83-16,34.83-44Z"/><path class="cls-3" d="M1136.07,232.62c0-103.13,52.71-165,146.21-165s145.3,61.88,145.3,166.38-51.79,158.59-145.3,158.59S1136.07,335.29,1136.07,232.62ZM1364.79,234c0-72-29.34-110-82.51-110-53.62,0-83.42,38-83.42,110S1229.57,338,1282.28,338C1328.12,338,1364.79,306,1364.79,234Z"/><path class="cls-3" d="M1616,167.53c-3.2-31.17-22-46.29-60.5-46.29-35.75,0-54.54,12.83-54.54,35.75,0,19.25,13.29,30.25,47.21,38.5,34.37,8.25,67.83,16.5,90.29,26.58,26.59,11.92,47.67,30.72,47.67,73.8,0,66.92-50.42,96.71-121.46,96.71-75.17,0-127.43-33.46-128.8-101.75h61.42c.92,31.17,27,50.42,67.84,50.42,37.58,0,59.12-16,59.12-43.09,0-17.87-9.16-30.25-47.21-38.5-37.58-8.25-61.88-13.75-83.42-23.38-32.54-14.66-50.88-36.66-50.88-75.17,0-54.54,37.13-93.5,111.39-93.5,77,0,120.09,41.71,122.38,99.92Z"/></svg>