<?xml version="1.0" encoding="UTF-8"?>
<svg width="25.78" height="27.3" alt="Fluidd" version="1.1" viewBox="0 0 269.8 246.4" xmlns="http://www.w3.org/2000/svg">
 <g transform="translate(-171.3 -165.3)">
  <path class="color-primary" d="m325.7 166.9 115.3 42.48-115.3 74.14v-116.4h-0.7147z" fill="#76fb00" stroke-width=".7353"/>
  <path class="color-primary" d="m385.9 258.1 41.27 21.08-101.4 84.29 9e-5 -68.77c2.011-0.014 4.02-0.5848 5.845-1.714l0.2758-0.1758z" fill="#76fb00" stroke-width=".7353"/>
  <path class="color-primary" d="m384.3 329.4 26.67 17.6-85.12 84.41v-56.69h0.0765l0.0934-2e-3 0.2191-7e-3 0.0309-7.4e-4c1.315-0.0581 2.626-0.3485 3.866-0.8779l0.0353-0.0147 0.1956-0.0868 0.0743-0.0338 0.1426-0.0677 0.1507-0.0727 0.0647-0.0331 0.2066-0.1074 0.0221-0.011c0.6963-0.3728 1.36-0.8242 1.976-1.352z" fill="#76fb00" stroke-width=".7353"/>
  <path class="color-primary" d="m171.3 146.3c0 0.4662 17.87 44.6 39.63 97.91 21.76 53.46 39.63 97.75 39.63 98.53 0 0.7771-7.46 1.71-16.63 2.02l-16.78 0.4662 17.41 0.3108c15.54 0.3108 17.56 0.6216 19.12 3.264 2.953 5.75 1.554 7.149-10.41 11.66-14.76 5.595-21.29 8.703-20.2 9.791 0.4662 0.4662 8.392-2.176 17.56-5.595 9.169-3.574 16.63-6.216 16.78-6.061 4.196 6.994 3.73 8.081-7.771 20.83-6.372 6.994-11.5 13.21-11.5 13.99 0 0.7771 5.439-4.196 12.28-10.88l12.12-12.12 2.642 6.838c1.554 3.574 6.216 11.35 10.57 17.1l7.771 10.57h30.77v-237.8h-94.34l-23.62-10.88c-24.71-11.35-25.02-11.5-25.02-9.946zm88.59 108.6c7.615 12.9 7.771 13.68 7.771 25.33l-0.1554 11.97-6.061-6.994c-9.169-10.41-16.01-24.24-16.01-32.01 0-6.372 2.331-11.5 5.284-11.5 0.6217 0 4.818 5.906 9.169 13.21z" fill="#fcfcfc" stroke-width="1.554"/>
  <path class="color-primary" d="m288.8 411.5c0.6217 1.088 4.196 6.061 7.926 10.88 6.061 7.926 7.46 9.014 12.28 9.014h5.284v-21.76h-13.37c-10.1 0-12.9 0.4662-12.12 1.865z" fill="#fcfcfc" stroke-width="1.554"/>
 </g>
</svg>
